<?xml version="1.0" encoding="UTF-8"?>
<svg version="1.1" xmlns="http://www.w3.org/2000/svg" width="60" height="60">
<path d="M0 0 C24.78085992 -0.72884882 24.78085992 -0.72884882 35 8 C37.21512294 10.67660689 37 12.08138074 37 15.625 C35.93346704 22.3253365 32.17944775 28.10482804 27.125 32.5 C21.09895986 35.39249927 15.64344565 36.27681024 9 36 C8.96261719 36.56847656 8.92523437 37.13695312 8.88671875 37.72265625 C8.43021378 43.08435193 7.36510918 47.1669508 5 52 C2.68756208 52.02685412 0.3750373 52.04632841 -1.9375 52.0625 C-3.22527344 52.07410156 -4.51304688 52.08570313 -5.83984375 52.09765625 C-9 52 -9 52 -10 51 C-10.50612524 43.46766548 -9.75538789 35.88471112 -9.12109375 28.3828125 C-9.01117167 25.31208607 -9.30608918 22.96534553 -10 20 C-10.62368015 13.42737074 -9.42321828 8.10131745 -7 2 C-5.68 2 -4.36 2 -3 2 C-2.67 2.66 -2.34 3.32 -2 4 C-1.34 2.68 -0.68 1.36 0 0 Z M3 3 C-2.65514312 17.72315687 -7.62548222 33.05020351 -7 49 C-3.7 49 -0.4 49 3 49 C5.3029552 43.01231647 6.46581985 39.26304844 5 33 C5.61746094 33.03480469 6.23492187 33.06960937 6.87109375 33.10546875 C14.36242521 33.3449177 20.21720131 32.14931744 26.75 28.4375 C30.08490961 24.82468125 32.48350295 20.68669802 34 16 C33.86933865 12.75766282 33.53198592 11.49614687 31.14453125 9.26953125 C30.37496094 8.78871094 29.60539062 8.30789062 28.8125 7.8125 C28.05582031 7.32394531 27.29914062 6.83539063 26.51953125 6.33203125 C21.04281159 3.43658721 16.25992126 2.72043803 10.125 2.875 C9.09246094 2.88853516 9.09246094 2.88853516 8.0390625 2.90234375 C6.35922162 2.92567487 4.67956254 2.96153674 3 3 Z " fill="#000000" transform="translate(16,4)"/>
<path d="M0 0 C1.91750286 0.08743331 3.83406665 0.1956189 5.75 0.3125 C6.81734375 0.37050781 7.8846875 0.42851562 8.984375 0.48828125 C12.1821068 1.03090154 13.62598691 1.85071145 16 4 C15.875 6.8125 15.875 6.8125 15 10 C10.41990853 13.32056632 5.48411436 13.6465793 0 14 C0.45822468 10.53058454 0.89131683 7.32604951 2 4 C1.34 3.67 0.68 3.34 0 3 C0 2.01 0 1.02 0 0 Z " fill="#000000" transform="translate(23,14)"/>
<path d="M0 0 C-0.33 1.32 -0.66 2.64 -1 4 C-2.98 4 -4.96 4 -7 4 C-6.67 3.01 -6.34 2.02 -6 1 C-3.90006779 0.25486277 -2.22568901 0 0 0 Z " fill="#000000" transform="translate(30,29)"/>
</svg>
